<mxfile host="Electron" agent="Mozilla/5.0 (Windows NT 10.0; Win64; x64) AppleWebKit/537.36 (KHTML, like Gecko) draw.io/27.0.5 Chrome/134.0.6998.205 Electron/35.3.0 Safari/537.36" version="27.0.5">
  <diagram name="Страница — 1" id="_c2zIHPguvPGuPpQHwTz">
    <mxGraphModel dx="2004" dy="1716" grid="1" gridSize="10" guides="1" tooltips="1" connect="1" arrows="1" fold="1" page="1" pageScale="1" pageWidth="1169" pageHeight="827" math="0" shadow="0">
      <root>
        <mxCell id="0" />
        <mxCell id="1" parent="0" />
        <mxCell id="jhh1zoFwaYAyAGupVXI--33" value="" style="rounded=0;whiteSpace=wrap;html=1;dashed=1;dashPattern=12 12;" parent="1" vertex="1">
          <mxGeometry x="377.5" y="80" width="432.5" height="540" as="geometry" />
        </mxCell>
        <mxCell id="jhh1zoFwaYAyAGupVXI--32" value="" style="rounded=0;whiteSpace=wrap;html=1;dashed=1;dashPattern=12 12;" parent="1" vertex="1">
          <mxGeometry x="30" y="80" width="160" height="420" as="geometry" />
        </mxCell>
        <mxCell id="jhh1zoFwaYAyAGupVXI--11" value="" style="rounded=1;whiteSpace=wrap;html=1;" parent="1" vertex="1">
          <mxGeometry x="400" y="152.5" width="390" height="437.5" as="geometry" />
        </mxCell>
        <mxCell id="jhh1zoFwaYAyAGupVXI--1" value="&lt;font style=&quot;font-size: 18px;&quot;&gt;SMAILP&lt;/font&gt;" style="rounded=1;whiteSpace=wrap;html=1;" parent="1" vertex="1">
          <mxGeometry x="50" y="190" width="120" height="270" as="geometry" />
        </mxCell>
        <mxCell id="jhh1zoFwaYAyAGupVXI--3" value="" style="shape=flexArrow;endArrow=classic;html=1;rounded=0;exitX=1;exitY=0.25;exitDx=0;exitDy=0;entryX=0;entryY=0.5;entryDx=0;entryDy=0;" parent="1" target="jhh1zoFwaYAyAGupVXI--8" edge="1">
          <mxGeometry width="50" height="50" relative="1" as="geometry">
            <mxPoint x="170" y="249.5" as="sourcePoint" />
            <mxPoint x="320" y="249.5" as="targetPoint" />
          </mxGeometry>
        </mxCell>
        <mxCell id="jhh1zoFwaYAyAGupVXI--4" value="" style="shape=flexArrow;endArrow=classic;html=1;rounded=0;exitX=1;exitY=0.25;exitDx=0;exitDy=0;entryX=0;entryY=0.5;entryDx=0;entryDy=0;" parent="1" target="jhh1zoFwaYAyAGupVXI--9" edge="1">
          <mxGeometry width="50" height="50" relative="1" as="geometry">
            <mxPoint x="170" y="329.5" as="sourcePoint" />
            <mxPoint x="340" y="330" as="targetPoint" />
            <Array as="points">
              <mxPoint x="250" y="329.5" />
            </Array>
          </mxGeometry>
        </mxCell>
        <mxCell id="jhh1zoFwaYAyAGupVXI--5" value="" style="shape=flexArrow;endArrow=classic;html=1;rounded=0;entryX=1;entryY=0.778;entryDx=0;entryDy=0;entryPerimeter=0;exitX=0;exitY=0.5;exitDx=0;exitDy=0;" parent="1" source="jhh1zoFwaYAyAGupVXI--10" edge="1">
          <mxGeometry width="50" height="50" relative="1" as="geometry">
            <mxPoint x="280" y="409.5" as="sourcePoint" />
            <mxPoint x="170" y="409.55999999999995" as="targetPoint" />
          </mxGeometry>
        </mxCell>
        <mxCell id="jhh1zoFwaYAyAGupVXI--21" style="edgeStyle=orthogonalEdgeStyle;rounded=0;orthogonalLoop=1;jettySize=auto;html=1;exitX=1;exitY=0.5;exitDx=0;exitDy=0;entryX=0;entryY=0.25;entryDx=0;entryDy=0;" parent="1" source="jhh1zoFwaYAyAGupVXI--8" target="jhh1zoFwaYAyAGupVXI--14" edge="1">
          <mxGeometry relative="1" as="geometry" />
        </mxCell>
        <mxCell id="jhh1zoFwaYAyAGupVXI--8" value="Параметры доступа&lt;div&gt;к LLM&amp;nbsp;&lt;/div&gt;" style="rounded=0;whiteSpace=wrap;html=1;" parent="1" vertex="1">
          <mxGeometry x="450" y="220" width="120" height="60" as="geometry" />
        </mxCell>
        <mxCell id="jhh1zoFwaYAyAGupVXI--24" style="edgeStyle=orthogonalEdgeStyle;rounded=0;orthogonalLoop=1;jettySize=auto;html=1;exitX=1;exitY=0.5;exitDx=0;exitDy=0;entryX=0;entryY=0.5;entryDx=0;entryDy=0;" parent="1" source="jhh1zoFwaYAyAGupVXI--9" target="jhh1zoFwaYAyAGupVXI--14" edge="1">
          <mxGeometry relative="1" as="geometry" />
        </mxCell>
        <mxCell id="jhh1zoFwaYAyAGupVXI--9" value="Данные запроса" style="rounded=0;whiteSpace=wrap;html=1;" parent="1" vertex="1">
          <mxGeometry x="450" y="300" width="120" height="60" as="geometry" />
        </mxCell>
        <mxCell id="jhh1zoFwaYAyAGupVXI--10" value="Ответ" style="rounded=0;whiteSpace=wrap;html=1;" parent="1" vertex="1">
          <mxGeometry x="450" y="380" width="120" height="60" as="geometry" />
        </mxCell>
        <mxCell id="jhh1zoFwaYAyAGupVXI--12" value="База данных анонимайзера" style="shape=datastore;whiteSpace=wrap;html=1;" parent="1" vertex="1">
          <mxGeometry x="610" y="490" width="120" height="80" as="geometry" />
        </mxCell>
        <mxCell id="jhh1zoFwaYAyAGupVXI--23" style="edgeStyle=orthogonalEdgeStyle;rounded=0;orthogonalLoop=1;jettySize=auto;html=1;exitX=0;exitY=0.75;exitDx=0;exitDy=0;entryX=1;entryY=0.5;entryDx=0;entryDy=0;" parent="1" source="jhh1zoFwaYAyAGupVXI--14" target="jhh1zoFwaYAyAGupVXI--10" edge="1">
          <mxGeometry relative="1" as="geometry" />
        </mxCell>
        <mxCell id="jhh1zoFwaYAyAGupVXI--14" value="Сервис анонимизации и восстановления" style="rounded=0;whiteSpace=wrap;html=1;" parent="1" vertex="1">
          <mxGeometry x="610" y="235" width="120" height="190" as="geometry" />
        </mxCell>
        <mxCell id="jhh1zoFwaYAyAGupVXI--15" value="&lt;font style=&quot;font-size: 18px;&quot;&gt;LLM&amp;nbsp;&lt;/font&gt;&lt;div&gt;&lt;font style=&quot;font-size: 18px;&quot;&gt;провайдер&lt;/font&gt;&lt;/div&gt;" style="rounded=1;whiteSpace=wrap;html=1;" parent="1" vertex="1">
          <mxGeometry x="1000" y="213" width="140" height="230" as="geometry" />
        </mxCell>
        <mxCell id="jhh1zoFwaYAyAGupVXI--16" value="" style="shape=flexArrow;endArrow=classic;startArrow=classic;html=1;rounded=0;exitX=1;exitY=0.5;exitDx=0;exitDy=0;entryX=0;entryY=0.5;entryDx=0;entryDy=0;" parent="1" source="jhh1zoFwaYAyAGupVXI--14" target="jhh1zoFwaYAyAGupVXI--15" edge="1">
          <mxGeometry width="100" height="100" relative="1" as="geometry">
            <mxPoint x="590" y="510" as="sourcePoint" />
            <mxPoint x="690" y="410" as="targetPoint" />
          </mxGeometry>
        </mxCell>
        <mxCell id="jhh1zoFwaYAyAGupVXI--18" value="" style="shape=flexArrow;endArrow=classic;startArrow=classic;html=1;rounded=0;entryX=0.5;entryY=1;entryDx=0;entryDy=0;" parent="1" source="jhh1zoFwaYAyAGupVXI--12" target="jhh1zoFwaYAyAGupVXI--14" edge="1">
          <mxGeometry width="100" height="100" relative="1" as="geometry">
            <mxPoint x="590" y="510" as="sourcePoint" />
            <mxPoint x="690" y="410" as="targetPoint" />
          </mxGeometry>
        </mxCell>
        <mxCell id="jhh1zoFwaYAyAGupVXI--26" value="&lt;font style=&quot;font-size: 18px;&quot;&gt;WAN&lt;/font&gt;" style="ellipse;shape=cloud;whiteSpace=wrap;html=1;" parent="1" vertex="1">
          <mxGeometry x="210" y="66.5" width="100" height="527" as="geometry" />
        </mxCell>
        <mxCell id="jhh1zoFwaYAyAGupVXI--27" value="&lt;font style=&quot;font-size: 18px;&quot;&gt;WAN&lt;/font&gt;" style="ellipse;shape=cloud;whiteSpace=wrap;html=1;" parent="1" vertex="1">
          <mxGeometry x="840" y="63" width="90" height="527" as="geometry" />
        </mxCell>
        <mxCell id="jhh1zoFwaYAyAGupVXI--28" value="&lt;font style=&quot;font-size: 18px;&quot;&gt;Анонимайзер&lt;/font&gt;" style="text;html=1;align=center;verticalAlign=middle;whiteSpace=wrap;rounded=0;" parent="1" vertex="1">
          <mxGeometry x="537.5" y="160" width="115" height="30" as="geometry" />
        </mxCell>
        <mxCell id="jhh1zoFwaYAyAGupVXI--36" value="&lt;span style=&quot;font-size: 18px;&quot;&gt;VDS&lt;/span&gt;" style="text;html=1;align=center;verticalAlign=middle;whiteSpace=wrap;rounded=0;" parent="1" vertex="1">
          <mxGeometry x="80" y="100" width="60" height="30" as="geometry" />
        </mxCell>
        <mxCell id="jhh1zoFwaYAyAGupVXI--37" value="&lt;span style=&quot;font-size: 18px;&quot;&gt;VDS&lt;/span&gt;" style="text;html=1;align=center;verticalAlign=middle;whiteSpace=wrap;rounded=0;" parent="1" vertex="1">
          <mxGeometry x="555" y="100" width="60" height="30" as="geometry" />
        </mxCell>
        <mxCell id="jhh1zoFwaYAyAGupVXI--40" value="API" style="text;html=1;align=center;verticalAlign=middle;whiteSpace=wrap;rounded=0;" parent="1" vertex="1">
          <mxGeometry x="330" y="220" width="60" height="30" as="geometry" />
        </mxCell>
        <mxCell id="jhh1zoFwaYAyAGupVXI--43" value="API" style="text;html=1;align=center;verticalAlign=middle;whiteSpace=wrap;rounded=0;" parent="1" vertex="1">
          <mxGeometry x="330" y="300" width="60" height="30" as="geometry" />
        </mxCell>
        <mxCell id="jhh1zoFwaYAyAGupVXI--44" value="API" style="text;html=1;align=center;verticalAlign=middle;whiteSpace=wrap;rounded=0;" parent="1" vertex="1">
          <mxGeometry x="330" y="380" width="60" height="30" as="geometry" />
        </mxCell>
        <mxCell id="jhh1zoFwaYAyAGupVXI--45" value="API" style="text;html=1;align=center;verticalAlign=middle;whiteSpace=wrap;rounded=0;" parent="1" vertex="1">
          <mxGeometry x="950" y="280" width="60" height="30" as="geometry" />
        </mxCell>
        <mxCell id="jhh1zoFwaYAyAGupVXI--48" value="&lt;div&gt;&lt;br&gt;&lt;/div&gt;&lt;div style=&quot;text-align: center;&quot;&gt;&lt;font style=&quot;font-size: 18px;&quot;&gt;Система находится на выделенной VDS.&amp;nbsp;&lt;/font&gt;&lt;/div&gt;&lt;div style=&quot;text-align: center;&quot;&gt;&lt;font style=&quot;font-size: 18px;&quot;&gt;Коммуникации между ней, SMAILP и провайдером LLM происходят по API через общедоступные сети.&lt;/font&gt;&lt;/div&gt;&lt;div style=&quot;text-align: center;&quot;&gt;&lt;span style=&quot;background-color: transparent; color: light-dark(rgb(0, 0, 0), rgb(255, 255, 255));&quot;&gt;&lt;font size=&quot;3&quot;&gt;&amp;nbsp;&amp;nbsp;&lt;/font&gt;&lt;/span&gt;&lt;/div&gt;" style="text;html=1;align=left;verticalAlign=middle;whiteSpace=wrap;rounded=0;" parent="1" vertex="1">
          <mxGeometry x="120" y="11" width="980" height="49" as="geometry" />
        </mxCell>
        <mxCell id="jhh1zoFwaYAyAGupVXI--49" value="&lt;div&gt;&lt;ul&gt;&lt;li&gt;Система полностью автономна и независима, доступна для любых приложений.&lt;/li&gt;&lt;li&gt;Система находится на персональной VDS поэтому может быть размещена территориально и по провайдерам где угодно&amp;nbsp;&lt;/li&gt;&lt;/ul&gt;&lt;/div&gt;&lt;div&gt;&lt;br&gt;&lt;/div&gt;" style="text;html=1;align=left;verticalAlign=middle;whiteSpace=wrap;rounded=0;" parent="1" vertex="1">
          <mxGeometry x="40" y="680" width="480" height="90" as="geometry" />
        </mxCell>
        <mxCell id="jhh1zoFwaYAyAGupVXI--50" value="&lt;ul&gt;&lt;li&gt;В цепочке присутствуют два медленных канала связи (WAN) что замедляет работу&lt;/li&gt;&lt;li&gt;Необходимо каждый раз передавать параметры доступа к LLM моделям (включая токен), что приводит к избыточности данных&lt;/li&gt;&lt;li&gt;Из за наличия двух областей с публичными сетями, больше риски для данных&lt;/li&gt;&lt;li&gt;Необходимость локальной реализации поддержки разных LLM (в случае появления новых)&lt;/li&gt;&lt;li&gt;Нужен дополнительный сервер для обработки TLS&amp;nbsp; &amp;nbsp; &amp;nbsp;&lt;/li&gt;&lt;/ul&gt;" style="text;html=1;align=left;verticalAlign=middle;whiteSpace=wrap;rounded=0;" parent="1" vertex="1">
          <mxGeometry x="610" y="680" width="500" height="130" as="geometry" />
        </mxCell>
        <mxCell id="jhh1zoFwaYAyAGupVXI--51" value="&lt;font style=&quot;font-size: 14px;&quot;&gt;&lt;u&gt;Плюсы&lt;/u&gt;&lt;/font&gt;" style="text;html=1;align=center;verticalAlign=middle;whiteSpace=wrap;rounded=0;" parent="1" vertex="1">
          <mxGeometry x="80" y="650" width="60" height="30" as="geometry" />
        </mxCell>
        <mxCell id="jhh1zoFwaYAyAGupVXI--52" value="&lt;font style=&quot;font-size: 14px;&quot;&gt;&lt;u&gt;Минусы&lt;/u&gt;&lt;/font&gt;" style="text;html=1;align=center;verticalAlign=middle;whiteSpace=wrap;rounded=0;" parent="1" vertex="1">
          <mxGeometry x="650" y="650" width="60" height="30" as="geometry" />
        </mxCell>
      </root>
    </mxGraphModel>
  </diagram>
</mxfile>
